<?xml version="1.0" encoding="utf-8"?>
<!-- Generator: Adobe Illustrator 19.0.0, SVG Export Plug-In . SVG Version: 6.00 Build 0)  -->
<svg version="1.1" id="Layer_1" xmlns="http://www.w3.org/2000/svg" xmlns:xlink="http://www.w3.org/1999/xlink" x="0px" y="0px"
	 viewBox="-197 320.9 200 200" style="enable-background:new -197 320.9 200 200;" xml:space="preserve">
<style type="text/css">
	.st0{fill:#FFFFFF;}
</style>
<path class="st0" d="M-759,1073.4h23.8L-778,1121l-42.8-47.6h23.8V1031h38.1L-759,1073.4L-759,1073.4z M-744.7,1111.5v14.3h-66.6
	v-14.3h-9.5v23.8h85.7v-23.8H-744.7z"/>
<path class="st0" d="M-97,320.9c55.2,0,100,44.8,100,100s-44.8,100-100,100s-100-44.8-100-100S-152.2,320.9-97,320.9 M-75.7,454.2
	h-42.6c4.6,20.5,12,34.3,21.3,47.9C-87,487.6-80,473.7-75.7,454.2 M-135.3,454.2h-38.1c10.3,23.5,30.9,41.4,56.3,47.6
	C-125.8,487.4-132,471.4-135.3,454.2 M-20.6,454.2h-38.1c-3.3,16.6-9.1,32.4-18.1,47.4C-51.7,495.3-30.8,477.5-20.6,454.2
	 M-137.3,404.2h-41.4c-2.2,10.9-2.2,22.4,0,33.3h41C-138.7,426.5-138.6,415.3-137.3,404.2 M-73.5,404.2h-47.1
	c-1.4,11-1.5,22.3-0.4,33.3H-73C-71.9,426.5-72.1,415.3-73.5,404.2 M-15.3,404.2h-41.4c1.2,11.1,1.4,22.3,0.4,33.3h41
	C-13.2,426.8-13.1,415.5-15.3,404.2 M-116.6,339.8c-25.6,6.1-46.4,24.1-56.8,47.7h38.8C-131,370.5-124.8,354.3-116.6,339.8
	 M-97,339.4c-9.1,14.8-15.9,28.8-20.5,48.1h41.1C-80.9,368.8-87.6,354.7-97,339.4 M-77.3,340c8.4,15.1,14.4,31.3,17.9,47.6h38.8
	C-30.9,364.1-52,346.2-77.3,340"/>
</svg>
