<?xml version="1.0" encoding="utf-8"?>
<!-- Generator: Adobe Illustrator 23.0.1, SVG Export Plug-In . SVG Version: 6.00 Build 0)  -->
<svg version="1.1" id="Layer_1" xmlns="http://www.w3.org/2000/svg" xmlns:xlink="http://www.w3.org/1999/xlink" x="0px" y="0px"
	 viewBox="0 0 200 200" style="enable-background:new 0 0 200 200;" xml:space="preserve">
<style type="text/css">
	.st0{fill-rule:evenodd;clip-rule:evenodd;fill:#FFFFFF;}
</style>
<path class="st0" d="M164.6,165.6c-5.6,3.7-12.4,5.9-19.7,5.9c-19.7,0-35.7-16-35.7-35.7s16-35.7,35.7-35.7s35.7,16,35.7,35.7
	c0,7.3-2.2,14-5.9,19.7l20.2,20.2l-10.1,10.1L164.6,165.6z M110.6,171.1H21.5V30.5h53.2l28.1,21.1h77.3v49.9
	c-8.9-9.1-21.4-14.8-35.2-14.8c-27.2,0-49.2,22.1-49.2,49.2C95.8,149.7,101.4,162.2,110.6,171.1z M144.9,114.4
	c11.8,0,21.4,9.6,21.4,21.4s-9.6,21.4-21.4,21.4c-11.8,0-21.4-9.6-21.4-21.4S133.1,114.4,144.9,114.4z"/>
</svg>
