<?xml version="1.0" encoding="utf-8"?>
<!-- Generator: Adobe Illustrator 19.0.0, SVG Export Plug-In . SVG Version: 6.00 Build 0)  -->
<svg version="1.1" id="Layer_1" xmlns="http://www.w3.org/2000/svg" xmlns:xlink="http://www.w3.org/1999/xlink" x="0px" y="0px"
	 viewBox="-197 320.9 200 200" style="enable-background:new -197 320.9 200 200;" xml:space="preserve">
<style type="text/css">
	.st0{fill:#FFFFFF;}
</style>
<path class="st0" d="M-956,1394.3h23.8l-42.8,47.6l-42.8-47.6h23.8v-42.4h38.1L-956,1394.3L-956,1394.3z M-941.7,1432.4v14.3h-66.6
	v-14.3h-9.5v23.8h85.7v-23.8H-941.7z"/>
<path class="st0" d="M-97,337.6c46,0,83.3,37.4,83.3,83.3S-51,504.2-97,504.2s-83.3-37.4-83.3-83.3S-142.9,337.6-97,337.6z
	 M-97,320.9c-55.2,0-100,44.8-100,100s44.8,100,100,100S3,476.1,3,420.9S-41.8,320.9-97,320.9z M-42.8,394
	c-3.7,1.6-7.6,2.7-11.8,3.2c4.2-2.5,7.5-6.6,9-11.4c-4,2.4-8.4,4.1-13,5c-3.7-4-9.1-6.5-15-6.5c-13.3,0-23,12.4-20,25.2
	c-17-0.9-32.2-9-42.3-21.4c-5.4,9.2-2.8,21.3,6.4,27.4c-3.4-0.1-6.5-1-9.3-2.6c-0.2,9.5,6.6,18.4,16.5,20.4c-2.9,0.8-6,1-9.3,0.3
	c2.6,8.2,10.2,14.1,19.2,14.2c-8.6,6.8-19.5,9.8-30.4,8.5c9.1,5.8,19.9,9.2,31.4,9.2c38.1,0,59.6-32.2,58.3-61
	C-49.1,401.8-45.6,398.2-42.8,394z"/>
</svg>
