<?xml version="1.0" encoding="utf-8"?>
<!-- Generator: Adobe Illustrator 23.0.0, SVG Export Plug-In . SVG Version: 6.00 Build 0)  -->
<svg version="1.1" id="Layer_1" xmlns="http://www.w3.org/2000/svg" xmlns:xlink="http://www.w3.org/1999/xlink" x="0px" y="0px"
	 viewBox="0 0 200 200" style="enable-background:new 0 0 200 200;" xml:space="preserve">
<style type="text/css">
	.st0{fill:#FFFFFF;}
</style>
<path class="st0" d="M-3356,1448c0,2.4-1.9,4.3-4.3,4.3s-4.3-1.9-4.3-4.3v-43.3c0-2.4,1.9-4.3,4.3-4.3s4.3,1.9,4.3,4.3V1448z
	 M-3338.7,1448c0,2.4-1.9,4.3-4.3,4.3s-4.3-1.9-4.3-4.3v-43.3c0-2.4,1.9-4.3,4.3-4.3s4.3,1.9,4.3,4.3V1448z M-3321.3,1448
	c0,2.4-1.9,4.3-4.3,4.3s-4.3-1.9-4.3-4.3v-43.3c0-2.4,1.9-4.3,4.3-4.3s4.3,1.9,4.3,4.3V1448z M-3299.7,1374.3v8.7h-86.7v-8.7h24.7
	c3.9,0,7.1-4.8,7.1-8.7h23c0,3.9,3.2,8.7,7.1,8.7H-3299.7z M-3312.7,1391.7v69.3h-60.7v-69.3h-8.7v78h78v-78H-3312.7z"/>
<path class="st0" d="M129.6,90.1V70.4c0-16.4-13.3-29.6-29.6-29.6S70.4,54,70.4,70.4v19.8H55.5v69.1h88.9V90.1H129.6z M80.2,90.1
	V70.4c0-10.9,8.9-19.8,19.8-19.8s19.8,8.9,19.8,19.8v19.8H80.2z"/>
</svg>
