<?xml version="1.0" encoding="utf-8"?>
<!-- Generator: Adobe Illustrator 23.0.0, SVG Export Plug-In . SVG Version: 6.00 Build 0)  -->
<svg version="1.1" id="Capa_1" xmlns="http://www.w3.org/2000/svg" xmlns:xlink="http://www.w3.org/1999/xlink" x="0px" y="0px"
	 viewBox="0 0 503.8 503.8" style="enable-background:new 0 0 503.8 503.8;" xml:space="preserve">
<style type="text/css">
	.st0{fill:#FFFFFF;}
	.st1{opacity:0.5;fill:#FFFFFF;enable-background:new    ;}
</style>
<g>
	<g>
		<g>
			<g>
				<path class="st0" d="M391.5,119.2c-2.3-53-47-94.1-100-91.8c-49.9,2.1-89.8,42.1-91.8,92c0,3.9,0.2,7.9,0.7,11.8
					c3.8,29.8,21.3,56.2,47.3,71.1l0.2,129l-15.1-18.2c-0.1-2.4-0.1-4.8-0.4-7.2c-5.6-48.3-49.3-82.8-97.6-77.2
					c-44.7,5.2-78.2,43.2-77.8,88.2c0,3.6,0.2,7.2,0.7,10.7c5.5,44.1,43,77.1,87.4,77.1c8,0,16-1.1,23.8-3.3l63.3,75.8v26.2h32
					v-37.8L163.5,345.3c-7.3-8.8-6.2-21.8,2.4-29.2c8.9-7.3,22-6.2,29.6,2.5l27.8,33.3c11.3,13.6,31.5,15.4,45.1,4
					c7.3-6.1,11.5-15.1,11.5-24.6l-0.3-179.8c0-8.8,7.2-16,16-16c8,0,14.8,6,15.8,13.9c0.1,0.7,0.1,1.3,0.1,2l0.1,107.9l44,13.2
					l9.1-30.6l-21.2-6.4l-0.1-33.2C373.3,185.2,391.6,153.5,391.5,119.2z M172.9,279.4c-29,3.6-49.6,30-46,59
					c1.3,10.1,5.4,19.6,11.9,27.5l5.8,6.9c-28.1-0.1-51.8-21.1-55.3-49c-0.3-2.3-0.4-4.6-0.4-6.8c-0.1-30.8,24.7-55.9,55.5-56.1
					c16-0.1,31.3,6.7,41.9,18.7C181.9,278.9,177.4,278.8,172.9,279.4z M295.6,103.2v0.2c-26.4-0.1-47.9,21.3-48,47.8
					c0,0.1,0,0.2,0,0.3v10.1c-8.5-9.6-13.9-21.5-15.5-34.2c-0.3-2.7-0.5-5.3-0.5-8c0.3-35.3,29.2-63.8,64.5-63.5
					c31.8,0.3,58.6,23.9,62.9,55.4c0.3,2.7,0.5,5.3,0.5,8c0.1,15.6-5.6,30.6-15.9,42.3v-10.4C343.5,124.6,322,103.2,295.6,103.2z"/>
				<polygon class="st0" points="457,269.3 447.8,299.9 471.8,307.1 472,401.8 424,465.9 424,503.3 456,503.3 456,476.5 504,412.5 
					503.8,283.3 				"/>
				
					<rect x="390.4" y="254.9" transform="matrix(0.286 -0.9582 0.9582 0.286 30.6005 582.8752)" class="st0" width="32" height="32"/>
			</g>
		</g>
	</g>
	<polygon class="st1" points="129,24.7 108.7,4.4 185.8,0.3 181.8,77.4 161.4,57.1 125.3,93.2 92.8,60.8 	"/>
	<polygon class="st1" points="56.6,161.7 76.9,182 -0.2,186.1 3.9,109.1 24.2,129.3 60.3,93.2 92.8,125.7 	"/>
</g>
</svg>
