<?xml version="1.0" encoding="utf-8"?>
<!-- Generator: Adobe Illustrator 19.0.0, SVG Export Plug-In . SVG Version: 6.00 Build 0)  -->
<svg version="1.1" id="Layer_1" xmlns="http://www.w3.org/2000/svg" xmlns:xlink="http://www.w3.org/1999/xlink" x="0px" y="0px"
	 viewBox="-285 408.9 24 24" style="enable-background:new -285 408.9 24 24;" xml:space="preserve">
<style type="text/css">
	.st0{fill:#FFFFFF;}
</style>
<path class="st0" d="M-307.5,435.9c-1.7-0.4-3.3-0.7-2.5-2.2c2.4-4.5,0.6-6.8-1.9-6.8c-2.5,0-4.2,2.5-1.9,6.8
	c0.8,1.5-0.9,1.8-2.5,2.2c-1.7,0.4-1.6,1.3-1.6,3h12C-305.9,437.2-305.7,436.3-307.5,435.9z M-322.7,422v24h21.6v-24
	C-301.1,422-322.7,422-322.7,422z M-303.5,441.2h-16.9v-16.8h16.9V441.2z"/>
<path class="st0" d="M-280,414.9h-3v-1h3V414.9z M-272,420.9c-1.7,0-3,1.3-3,3s1.3,3,3,3s3-1.3,3-3S-270.3,420.9-272,420.9z
	 M-261,415.9v17h-24v-17h5.9c0.7,0,1.3-0.3,1.7-0.9l1.4-2.1h8l1.4,2.1c0.4,0.6,1,0.9,1.7,0.9H-261z M-280,419.9c0-0.6-0.4-1-1-1
	s-1,0.4-1,1s0.4,1,1,1S-280,420.4-280,419.9z M-267,423.9c0-2.8-2.2-5-5-5s-5,2.2-5,5s2.2,5,5,5S-267,426.7-267,423.9z"/>
</svg>
