<?xml version="1.0" encoding="utf-8"?>
<!-- Generator: Adobe Illustrator 19.0.0, SVG Export Plug-In . SVG Version: 6.00 Build 0)  -->
<svg version="1.1" id="Layer_1" xmlns="http://www.w3.org/2000/svg" xmlns:xlink="http://www.w3.org/1999/xlink" x="0px" y="0px"
	 viewBox="-197 320.9 200 200" style="enable-background:new -197 320.9 200 200;" xml:space="preserve">
<style type="text/css">
	.st0{fill:#E3E4E8;}
	.st1{fill:#FFFFFF;}
	.st2{fill:#DD272F;}
	.st3{fill:#ADADAD;}
</style>
<g>
	<circle class="st0" cx="-97" cy="420.9" r="100"/>
	<path class="st1" d="M-33.9,470.7h-126.2c-3.8,0-6.9-3.1-6.9-6.9v-136c0-3.8,3.1-6.9,6.9-6.9h126.2c3.8,0,6.9,3.1,6.9,6.9v136.1
		C-27,467.6-30.1,470.7-33.9,470.7z"/>
	<g>
		<circle class="st2" cx="-97" cy="356.7" r="26.6"/>
	</g>
	<g>
		<rect x="-129.5" y="417" class="st3" width="63.7" height="6.1"/>
		<rect x="-134.5" y="429.2" class="st3" width="73.7" height="6.1"/>
		<rect x="-120.5" y="440.8" class="st3" width="45.8" height="6.1"/>
		<rect x="-133.1" y="404.9" class="st3" width="71" height="6.1"/>
	</g>
	<g>
		<rect x="-129.5" y="465" class="st3" width="63.7" height="6.1"/>
		<rect x="-134.5" y="477.2" class="st3" width="73.7" height="6.1"/>
		<rect x="-120.5" y="488.8" class="st3" width="45.8" height="6.1"/>
		<rect x="-133.1" y="452.9" class="st3" width="71" height="6.1"/>
	</g>
</g>
<rect x="-100" y="341.9" class="st1" width="6" height="17.8"/>
<circle class="st1" cx="-97" cy="368.3" r="4"/>
</svg>
