<?xml version="1.0" encoding="utf-8"?>
<!-- Generator: Adobe Illustrator 19.0.0, SVG Export Plug-In . SVG Version: 6.00 Build 0)  -->
<svg version="1.1" id="Layer_1" xmlns="http://www.w3.org/2000/svg" xmlns:xlink="http://www.w3.org/1999/xlink" x="0px" y="0px"
	 viewBox="-197 320.9 200 200" style="enable-background:new -197 320.9 200 200;" xml:space="preserve">
<style type="text/css">
	.st0{fill:#FFFFFF;}
</style>
<g id="XMLID_2_">
	<path id="XMLID_3_" class="st0" d="M-880.9,420.9v46.8h46.4v12h-46.4v47.2H-894v-47.2h-46.4v-12h46.4v-46.8H-880.9z"/>
</g>
<g id="XMLID_5_">
	<path id="XMLID_38_" class="st0" d="M-590.9,457.9c-0.4,0-0.6,0.1-1,0.1c-33.6,0-58.5,0-92.2,0c-0.4,0-0.6,0-1-0.1
		c0-2.6,0-5.2,0-7.8c32.7,0,56.7,0,89.4,0c1.6,0,3.2,0,4.7,0C-590.9,452.6-590.9,455.2-590.9,457.9z"/>
	<path id="XMLID_1_" class="st0" d="M-590.9,477.3c-0.4,0-0.6,0.1-1,0.1c-33.6,0-58.5,0-92.2,0c-0.4,0-0.6,0-1-0.1
		c0-2.6,0-5.2,0-7.8c32.7,0,56.7,0,89.4,0c1.6,0,3.2,0,4.7,0C-590.9,472-590.9,474.6-590.9,477.3z"/>
	<path id="XMLID_36_" class="st0" d="M-685.1,489.6c0.4,0,0.7-0.1,1.1-0.1c33.5,0,58.4,0,91.9,0c0.4,0,0.7,0.1,1.1,0.1
		c0,2.6,0,5.2,0,7.8c-0.2,0-0.5,0-0.7,0c-33.8,0-58.9,0-92.7,0c-0.2,0-0.5,0-0.7,0C-685.1,494.8-685.1,492.2-685.1,489.6z"/>
	<path id="XMLID_35_" class="st0" d="M-638.2,525.2c-0.2-0.3-0.4-0.6-0.6-0.8c-4.7-4.7-9.4-9.4-14.1-14.2c-0.2-0.2-0.4-0.5-0.8-0.9
		c10.5,0,20.8,0,31.4,0c-0.3,0.3-0.5,0.6-0.7,0.8c-4.7,4.7-9.5,9.5-14.2,14.2c-0.2,0.2-0.4,0.5-0.6,0.8
		C-637.9,525.2-638.1,525.2-638.2,525.2z"/>
	<path id="XMLID_34_" class="st0" d="M-653.4,438.1c5.1-5.1,10.3-10.3,15.4-15.5c5,5.1,10.2,10.3,15.3,15.5
		C-632.8,438.1-643.2,438.1-653.4,438.1z"/>
</g>
<path class="st0" d="M-97,375.4l39,35.8h-78L-97,375.4z M-58,430.6h-78l39,35.8L-58,430.6z"/>
</svg>
