<?xml version="1.0" encoding="utf-8"?>
<!-- Generator: Adobe Illustrator 19.0.0, SVG Export Plug-In . SVG Version: 6.00 Build 0)  -->
<svg version="1.1" id="Layer_1" xmlns="http://www.w3.org/2000/svg" xmlns:xlink="http://www.w3.org/1999/xlink" x="0px" y="0px"
	 viewBox="-197 320.9 200 200" style="enable-background:new -197 320.9 200 200;" xml:space="preserve">
<style type="text/css">
	.st0{fill:#E3E4E8;}
	.st1{fill:#FFFFFF;}
	.st2{fill:#ADADAD;}
	.st3{fill:#4FDB28;}
</style>
<g>
	<circle class="st0" cx="-97" cy="420.9" r="100"/>
	<path class="st1" d="M-33.9,470.7h-126.2c-3.8,0-6.9-3.1-6.9-6.9V327.8c0-3.8,3.1-6.9,6.9-6.9h126.2c3.8,0,6.9,3.1,6.9,6.9v136.1
		C-27,467.6-30.1,470.7-33.9,470.7z"/>
	<g>
		<rect x="-129.5" y="417" class="st2" width="63.7" height="6.1"/>
		<rect x="-134.5" y="429.2" class="st2" width="73.7" height="6.1"/>
		<rect x="-120.5" y="440.8" class="st2" width="45.8" height="6.1"/>
		<rect x="-133.1" y="404.9" class="st2" width="71" height="6.1"/>
	</g>
	<g>
		<circle class="st3" cx="-97" cy="356.7" r="26.6"/>
	</g>
	<path class="st1" d="M-87.3,345.6l-13.2,13.5l-6.2-5.8l-4.3,4.3l10.5,10.2l17.5-17.8L-87.3,345.6z"/>
</g>
</svg>
