<?xml version="1.0" encoding="utf-8"?>
<!-- Generator: Adobe Illustrator 19.0.0, SVG Export Plug-In . SVG Version: 6.00 Build 0)  -->
<svg version="1.1" id="Layer_1" xmlns="http://www.w3.org/2000/svg" xmlns:xlink="http://www.w3.org/1999/xlink" x="0px" y="0px"
	 viewBox="-197 320.9 200 200" style="enable-background:new -197 320.9 200 200;" xml:space="preserve">
<style type="text/css">
	.st0{fill:#FFFFFF;}
</style>
<path class="st0" d="M-956,1394.3h23.8l-42.8,47.6l-42.8-47.6h23.8v-42.4h38.1L-956,1394.3L-956,1394.3z M-941.7,1432.4v14.3h-66.6
	v-14.3h-9.5v23.8h85.7v-23.8H-941.7z"/>
<path class="st0" d="M-96,337.6c45.9,0,83.3,37.4,83.3,83.3s-37.4,83.3-83.3,83.3s-83.3-37.4-83.3-83.3S-141.9,337.6-96,337.6z
	 M-96,320.9c-55.2,0-100,44.8-100,100s44.8,100,100,100S4,476.1,4,420.9S-40.8,320.9-96,320.9z M-112.7,404.2h-16.7v16.7h16.7v50h25
	v-50h15.2l1.5-16.7h-16.7v-6.9c0-4,0.8-5.6,4.6-5.6h12v-20.8h-20c-15,0-21.6,6.6-21.6,19.2C-112.7,390.1-112.7,404.2-112.7,404.2z"
	/>
</svg>
