<?xml version="1.0" encoding="utf-8"?>
<!-- Generator: Adobe Illustrator 23.0.0, SVG Export Plug-In . SVG Version: 6.00 Build 0)  -->
<svg version="1.1" id="Layer_1" xmlns="http://www.w3.org/2000/svg" xmlns:xlink="http://www.w3.org/1999/xlink" x="0px" y="0px"
	 viewBox="0 0 642.7 205.1" style="enable-background:new 0 0 642.7 205.1;" xml:space="preserve">
<style type="text/css">
	.st0{fill:#FFFFFF;}
	.st1{fill:#B2B2B2;}
	.st2{fill:#606060;}
</style>
<path class="st0" d="M-1424.8,102.5v170h960v-170H-1424.8z M-1286.3,262.8c-11.3,0-20.5-9.2-20.5-20.6s9.1-20.5,20.5-20.5
	c11.4,0,20.5,9.1,20.5,20.5S-1275,262.8-1286.3,262.8z M-1254.4,208h-63.9c-11.3,0-20.5-9.2-20.5-20.5s9.2-20.5,20.5-20.5h63.9
	c11.3,0,20.5,9.1,20.5,20.5C-1233.9,198.9-1243,208-1254.4,208z M-1222.5,153.1L-1222.5,153.1h-63.6v0.1c-0.6,0-1.2,0-1.8-0.1h-61.8
	v0.1c-11.3,0-20.5-9.2-20.5-20.6c0-11.3,9.1-20.5,20.5-20.5h63.6h63.6c2.8,0,5.5,0.6,8,1.6c0.6,0.3,1.2,0.5,1.8,0.9
	c6.4,3.5,10.7,10.3,10.7,18v0.1C-1202.1,144-1211.2,153.1-1222.5,153.1z M-631.3,173.3c-6.2-7.4-13.6-11.1-22.7-11.1
	c-15.8,0-27.1,11.7-27.1,27.9c0,15.6,11.5,27.1,27.1,27.1c8.6,0,15.9-3.4,22.7-10.6v31.1c-12.2,4.1-16.4,5.1-23.1,5.1
	c-30.4,0-54.1-23-54.1-52.7c0-29.6,23.8-53.2,53.4-53.2c7.9,0,14.3,1.3,23.8,5.1L-631.3,173.3L-631.3,173.3z M-562.4,240.1h-20.4
	l-42.5-101.3h28.6l24.3,61.6l24.6-61.5h28.5L-562.4,240.1z"/>
<g>
	<path class="st1" d="M-1093.9,200.4l24.6-61.5h28.5l-43,101.1h-20.5l-42.4-101.2h28.6L-1093.9,200.4z"/>
	<path class="st1" d="M-1006.8,145c0,7.6-6,13.6-13.6,13.6c-7.5,0-13.6-6-13.6-13.6c0-7.6,6-13.6,13.6-13.6
		C-1012.9,131.3-1006.8,137.3-1006.8,145z M-1008.3,240h-24.3v-68.6h24.2L-1008.3,240L-1008.3,240z"/>
	<path class="st1" d="M-947.7,189.1c-4.5-2.3-9-3.4-13.2-3.4c-4.3,0-7.4,2.1-7.4,4.9c0,3.2,1.2,3.8,10.9,5.9
		c13.8,2.7,20,9.2,20,20.5c0,15.4-12.9,25.6-32.7,25.6c-9.6,0-18.4-2.6-27.4-7.9l8.8-17.1c6.4,4.3,13.8,7,19.4,7
		c4.4,0,7.5-2.3,7.5-5.3c0-3.5-1.8-4.5-10.3-6.4c-14.8-3-20.1-8.2-20.1-19.4c0-15.1,12-24.6,30.6-24.6c8.3,0,14.5,1.2,22.1,4.4
		L-947.7,189.1z"/>
	<path class="st1" d="M-901.7,210.3c0,8.3,4.1,12.6,12.4,12.6c8.2,0,12.2-4.3,12.2-12.6v-39h24.2V215c0,18.2-12.7,27.9-36.5,27.9
		c-23.9,0-36.7-9.7-36.7-27.9v-43.6h24.2v38.9H-901.7z"/>
	<path class="st1" d="M-762.7,171.4v68.7h-24.2v-7.6c-5.3,6.8-12,9.8-21.2,9.8c-19.5,0-34.7-16-34.7-36.7s15-36.5,34.6-36.5
		c8.8,0,15.3,2.7,21.4,9v-6.6C-786.8,171.4-762.7,171.4-762.7,171.4z M-817.5,205.6c0,8.7,7.1,15.8,15.8,15.8
		c8.6,0,15.6-7,15.6-15.6c0-8.8-7-15.8-15.6-15.8C-810.5,190-817.5,197-817.5,205.6z"/>
	<path class="st1" d="M-722.8,240H-747V128.9h24.2V240z"/>
</g>
<g>
	<path class="st0" d="M306.4,162.9c1.2-1,1.9-2.5,1.9-4.4c0-2-0.6-3.5-1.8-4.4c-1.2-0.9-3-1.4-5.4-1.4h-7.2v11.8h7.4
		C303.4,164.5,305.1,164,306.4,162.9z"/>
	<path class="st0" d="M302,168.5h-8.1v13.3h8.1c2.3,0,4-0.6,5.3-1.7c1.3-1.2,1.9-2.8,1.9-4.9C309.2,170.7,306.8,168.5,302,168.5z"/>
	<path class="st0" d="M407.6,152.8H402v0v28.9h5.1c3.7,0,6.7-1.2,8.7-3.5c2.1-2.3,3.1-5.7,3.1-10v-2.2c0-4.2-1-7.4-3-9.8
		C414,154,411.2,152.8,407.6,152.8z"/>
	<path class="st0" d="M-175.8-2.5v220h980v-220H-175.8z M311,182.9c-2.2,1.9-5.2,2.8-9.1,2.8H289v0v-36.9h12.1c4,0,7,0.8,9,2.5
		c2,1.7,3.1,4.1,3.1,7.4c0,1.7-0.5,3.3-1.5,4.6c-1,1.3-2.3,2.4-4,3.1c2,0.6,3.5,1.6,4.7,3.2c1.2,1.6,1.7,3.4,1.7,5.6
		C314.2,178.4,313.1,181,311,182.9z M347.3,173.9c0,3.5-1.1,6.3-3.3,8.5c-2.2,2.2-5.1,3.5-8.8,3.7l-1.3,0.1c-4,0-7.3-1.1-9.6-3.3
		c-2.4-2.2-3.6-5.2-3.7-9v-25.1h4.8v25c0,2.6,0.8,4.7,2.2,6.2c1.5,1.5,3.5,2.2,6.3,2.2s4.9-0.8,6.3-2.2c1.5-1.5,2.2-3.5,2.2-6.2v-25
		h4.9V173.9z M360.3,185.7h-4.9v-36.9h4.9V185.7z M391.5,185.7h-22.4v-36.9h4.9v33h0.1h17.5V185.7z M423.8,168.4
		c0,3.5-0.7,6.5-2,9.2c-1.3,2.6-3.3,4.6-5.8,6c-2.5,1.4-5.4,2.2-8.7,2.2h-10.2v-36.9h10.4c3.2,0,6,0.7,8.5,2.2
		c2.5,1.4,4.4,3.5,5.7,6c1.3,2.6,2,5.6,2,9V168.4z"/>
</g>
<g>
	<polyline class="st2" points="278.4,172.2 278.4,168.9 147.3,168.9 	"/>
	<polyline class="st2" points="433.2,172.2 433.2,168.9 564.4,168.9 	"/>
	<g>
		<path class="st2" d="M185.9,94.9l-13.2,0.1l0.1,29.4l-16.6,0.1l-0.5-80.4l29.8-0.1c9.5-0.1,16.9,2,22,6.2
			c5.2,4.2,7.8,10.2,7.8,17.9c0,5.5-1.1,10.1-3.5,13.7s-6,6.6-10.8,8.8l17.6,32.8v0.8l-17.8,0.1L185.9,94.9z M172.6,81.5l13.4-0.1
			c4.2,0,7.4-1.1,9.6-3.3c2.3-2.2,3.4-5.1,3.4-8.7c0-3.8-1.1-6.8-3.3-9s-5.5-3.2-9.9-3.2l-13.3,0.1L172.6,81.5z"/>
		<path class="st2" d="M254.9,125c-8.7,0.1-15.9-2.6-21.4-7.9c-5.6-5.3-8.3-12.5-8.4-21.4v-1.5c-0.1-6,1.1-11.4,3.4-16.1
			c2.3-4.7,5.6-8.4,9.8-11c4.2-2.6,9.1-3.9,14.5-4c8.2-0.1,14.6,2.5,19.4,7.6s7.1,12.4,7.1,21.9l0.1,6.5l-38,0.2
			c0.6,3.9,2.1,7,4.7,9.4c2.6,2.4,5.9,3.5,9.9,3.5c6.2-0.1,11-2.3,14.4-6.7l7.9,8.7c-2.4,3.4-5.6,6-9.6,8
			C264.4,123.9,259.9,124.9,254.9,125z M252.8,75.9c-3.2,0-5.8,1.1-7.7,3.3c-1.9,2.2-3.2,5.2-3.7,9.2l22.2-0.1V87
			c-0.1-3.5-1-6.3-2.9-8.2C258.9,76.8,256.2,75.8,252.8,75.9z"/>
		<path class="st2" d="M320.8,107c0-1.9-1-3.5-2.9-4.6s-5.1-2.1-9.3-3c-14.2-2.9-21.4-8.9-21.4-18c0-5.3,2.2-9.7,6.5-13.3
			s10.1-5.4,17.2-5.4c7.6-0.1,13.7,1.7,18.3,5.3c4.6,3.5,6.9,8.2,6.9,13.9l-16,0.1c0-2.3-0.8-4.2-2.2-5.6c-1.5-1.5-3.8-2.2-6.9-2.2
			c-2.7,0-4.8,0.6-6.2,1.9c-1.5,1.2-2.2,2.8-2.2,4.6c0,1.7,0.8,3.2,2.6,4.2s4.5,2,8.5,2.8s7.4,1.7,10.1,2.6
			c8.5,3.1,12.7,8.4,12.8,16c0,5.5-2.3,9.9-6.9,13.3c-4.6,3.4-10.7,5.1-18.1,5.1c-5,0-9.4-0.8-13.3-2.6s-6.9-4.2-9.2-7.3
			c-2.2-3.1-3.3-6.5-3.4-10.1l15.1-0.1c0.1,2.8,1.2,5,3.2,6.5c1.9,1.5,4.6,2.2,7.8,2.2c3.1,0,5.3-0.6,6.9-1.8
			C320.1,110.4,320.8,108.9,320.8,107z"/>
		<path class="st2" d="M382.5,117.1c-3.9,4.8-9.4,7.2-16.3,7.3c-6.4,0.1-11.3-1.8-14.7-5.4c-3.4-3.7-5.1-9-5.3-16.2L346,63.6l16-0.1
			l0.2,38.7c0.1,6.2,2.9,9.3,8.5,9.3c5.4,0,9.1-1.9,11.1-5.7l-0.3-42.3l16-0.1l0.3,59.8l-15,0.1L382.5,117.1z"/>
		<path class="st2" d="M424.6,63.1l0.6,6.7c4.2-5.2,9.9-7.8,17.1-7.9c7.7-0.1,13,3,15.9,9c4.2-6.1,10.1-9.2,17.9-9.2
			c6.5-0.1,11.3,1.8,14.5,5.6c3.2,3.7,4.8,9.4,4.9,17l0.2,38.2l-16,0.1l-0.2-38.1c0-3.4-0.7-5.8-2-7.4c-1.3-1.5-3.7-2.4-7-2.3
			c-4.8,0-8.1,2.4-9.9,6.9l0.3,41l-16,0.1l-0.2-38c0-3.5-0.7-6-2.1-7.5c-1.4-1.5-3.7-2.3-6.9-2.3c-4.5,0-7.8,1.9-9.8,5.7l0.3,42.3
			l-16,0.1l-0.3-59.8L424.6,63.1z"/>
		<path class="st2" d="M535.3,123.3c-8.7,0.1-15.9-2.6-21.4-7.9c-5.6-5.3-8.3-12.5-8.4-21.4v-1.5c-0.1-6,1.1-11.4,3.4-16.1
			c2.3-4.7,5.6-8.4,9.8-11c4.2-2.6,9.1-3.9,14.5-4c8.2-0.1,14.6,2.5,19.4,7.6c4.7,5.1,7.1,12.4,7.1,21.9l0.1,6.5l-38,0.2
			c0.6,3.9,2.1,7,4.7,9.4c2.6,2.4,5.9,3.5,9.9,3.5c6.2-0.1,11-2.3,14.4-6.7l7.9,8.7c-2.4,3.4-5.6,6-9.6,8
			C544.8,122.3,540.3,123.3,535.3,123.3z M533.3,74.3c-3.2,0-5.8,1.1-7.7,3.3c-1.9,2.2-3.2,5.2-3.7,9.2l22.2-0.1v-1.2
			c-0.1-3.5-1-6.3-2.9-8.2C539.3,75.2,536.7,74.3,533.3,74.3z"/>
	</g>
	<g>
		<polygon class="st1" points="116,29.8 116,28.9 109.5,28.9 		"/>
		<polygon class="st1" points="29.6,164.1 14.1,164.1 14.1,161.9 6.3,160.9 14.1,103.9 14.1,53.8 21,53.8 23.3,37.3 34.7,28.9 
			25.2,28.9 4.4,48.9 4.4,173.7 99.6,173.7 		"/>
	</g>
	<g id="_x31_29_3_">
		<g>
			<path class="st2" d="M40.6,120.2c6.9,1,51.9,7.1,58.8,8.1c4.9,0.7,6-7.3,1.1-8c-6.9-1-51.9-7.1-58.8-8.1
				C36.8,111.6,35.7,119.5,40.6,120.2z"/>
			<path class="st2" d="M37.8,140.9c6.9,1,13.7,1.9,20.6,2.8c4.9,0.7,6-7.3,1.1-8c-6.9-1-13.7-1.9-20.6-2.8
				C33.9,132.3,32.8,140.3,37.8,140.9z"/>
			<path class="st2" d="M45.5,85.1c-4.9-0.7-6,7.3-1.1,8c6.9,1,51.9,7.1,58.8,8.1c4.9,0.7,6-7.3,1.1-8
				C97.4,92.2,52.3,86.1,45.5,85.1z"/>
			<path class="st2" d="M42.6,105.9c6.9,1,51.9,7.1,58.8,8.1c4.9,0.7,6-7.3,1.1-8c-6.9-1-51.9-7.1-58.8-8.1
				C38.7,97.3,37.6,105.3,42.6,105.9z"/>
			<path class="st2" d="M107.8,59.7c-6.9-1-13.7-1.9-20.6-2.8c-4.9-0.7-6,7.3-1.1,8c6.9,1,13.7,1.9,20.6,2.8
				C111.6,68.4,112.7,60.4,107.8,59.7z"/>
			<path class="st2" d="M106,72.6c-6.9-1-13.7-1.9-20.6-2.8c-4.9-0.7-6,7.3-1.1,8c6.9,1,13.7,1.9,20.6,2.8
				C109.9,81.3,111,73.3,106,72.6z"/>
			<path class="st2" d="M23.3,37.3l-17,123.6l110.5,15.2l19.8-143.5L46.6,20.3L23.3,37.3z M17.1,152.7l15-109.2L48,45.7l2.1-15.1
				l75.5,10.4l-17.1,124.4L17.1,152.7L17.1,152.7z"/>
		</g>
	</g>
</g>
</svg>
